<?xml version="1.0" encoding="utf-8"?>
<!-- Generator: Adobe Illustrator 21.0.2, SVG Export Plug-In . SVG Version: 6.00 Build 0)  -->
<svg version="1.1" id="Layer_1" xmlns="http://www.w3.org/2000/svg" xmlns:xlink="http://www.w3.org/1999/xlink" x="0px" y="0px"
	 width="210px" height="40px" viewBox="0 0 210 40" style="enable-background:new 0 0 210 40;" xml:space="preserve">
<style type="text/css">
	.st0 {fill:#e27a02;}
	.st0:hover {fill:#e27a02;}

	<!--.st0:hover{fill:#d15006e8}-->
 	
</style>
<title>to-travelguide-button</title>
<path class="st0" d="M210,34.2l-0.7-0.7c0.1-0.1,0.2-0.3,0.2-0.4c0-0.2,0.3-0.3,0.1-0.6c-0.2-0.5-0.2-1-0.2-1.4l0.5-0.1v-0.4h-0.5
	c0-0.2,0-0.4,0.1-0.6c0.2-0.5,0.2-0.5-0.3-0.9c0-0.5,0-1-0.1-1.5c-0.1-0.6-0.1-1.1,0-1.7c0-0.2-0.1-0.5,0.3-0.5
	c0.1,0,0.1-0.2,0.2-0.4l-0.6-0.1c0.4-0.4,0.1-0.8,0.1-1.2c0-0.5,0.2-1,0.1-1.6c-0.1-0.3-0.6-0.4-0.4-0.9c0-0.1-0.1-0.3-0.2-0.4
	c-0.1-0.5-0.1-1-0.2-1.5l0.3-0.1c0.2-0.3-0.6-0.5-0.2-0.9c0.2-0.3,0.3-0.6,0.4-0.9l-0.4-0.3L209,17c0.1-0.1,0.1-0.3,0.1-0.5
	c0-0.3-0.1-0.8,0.5-0.9l-0.7-0.5c0.1-0.3,0.2-0.6,0.3-0.9c0.1-0.2,0.2-0.4,0.1-0.6c-0.1-0.4-0.1-0.8-0.1-1.2c0-0.1-0.1-0.3-0.1-0.4
	c-0.1-0.2-0.1-0.5-0.1-0.8c0-0.3,0.2-0.5,0-0.8c0,0,0-0.1,0-0.1c0.4-0.4,0.1-0.7,0-1.1c0-0.1-0.1-0.1-0.1-0.2c0-0.7,0-1.4,0-2.1
	c0-0.5,0.2-1,0.3-1.5c0-0.3-0.1-0.7-0.2-1c-0.3-0.7-0.5-1.5-0.6-2.3c0-0.6,0-1.2,0.1-1.8c0-0.2,0-0.4,0.1-0.6h-0.3L208,0.1l0.2,0.1
	c-0.9,0.1-1.8,0.2-2.6,0.2c-3,0.1-6,0.2-9.1,0.3c-3.3,0.1-6.6,0.1-10,0.1h-6.4c-0.4,0-0.8,0-1.2,0c-0.3,0-0.5,0-0.8,0
	c-0.7,0.5-1.3,0.2-2.1,0c-0.3-0.1-0.6-0.1-0.9-0.2l-3.8-0.4l-1.1-0.1c-0.6-0.1-1,0.4-1.6,0s-1.1,0-1.6-0.1s-1.3,0-1.9,0L163.7,0
	h-8.5l-0.7,0.1c-0.9,0.1-1.8,0.1-2.7,0.1c-1-0.1-2,0-3,0h-5c-0.6,0-1.1,0-1.7,0c-2,0-4,0.1-5.9,0c-2.2,0-4.4-0.2-6.5-0.3h-9.8
	c-0.6,0.1-1.2,0.3-1.8,0.5c-0.2,0.1-0.5,0.1-0.8,0.1c-1.3,0-2.7,0.1-4,0.3c-0.8,0-1.6,0.1-2.4,0s-1.3,0.3-2,0.1
	c-2.1,0.5-4.5,0.3-6.8,0.3c-1.1,0-2.2-0.1-3.2-0.1C96.7,1,94.7,1,92.6,0.9c-0.3,0-0.7,0-1,0.1C91.4,1,91.2,1.1,91,1.1
	c-1.4-0.4-3,0.2-4.2-0.1c-1.3-0.3-2.7-0.3-4,0.1c-1.2,0.2-2.4,0.3-3.7,0.2c-1.7,0-3.3-0.1-5-0.1c-2.3,0-4.6,0.1-6.8,0.1
	c-1.1,0-2.2-0.1-3.2-0.1h-1c-0.7,0-1.5,0-2.2-0.1c-1-0.2-2.1-0.2-3.1,0c-0.5,0.1-1.1,0.1-1.6,0.1c-0.3-0.2-0.4-0.5-0.7-0.6
	c-0.6-0.1-1.2-0.2-1.8-0.1c-1.2,0.2-2.3,0.3-3.5,0.3c-0.1,0-0.2,0-0.3,0c-2-0.2-4-0.1-5.9,0.4c-0.5,0.1-1,0.1-1.4,0.1
	c-3,0-6,0-9-0.1c-1.2,0-2.4-0.1-3.6-0.3c-2.6-0.4-5.2-0.5-7.9-0.4c-1.3,0-2.6,0.1-3.9,0.1c-1.5,0-3.1-0.1-4.6-0.1
	c-1.1-0.1-2.3-0.1-3.4,0.1C9.4,0.8,8.7,0.8,8.1,0.4C8,0.3,7.8,0.3,7.6,0.3C6.7,0.3,5.7,0.2,4.8,0H3.6C3.5,0.1,3.4,0.2,3.2,0.2
	L2.5,0.3L2,1C1.9,1.2,1.8,1.4,1.6,1.5c-0.2,0.3-0.2,0.6,0,0.9c0.1,0.1,0.1,0.3,0.2,0.4C2.1,3,2.2,3.4,2.1,3.7C2,4,2,4.3,2.1,4.6
	C2.3,5,2.2,5.4,2,5.7C1.8,6,1.7,6.4,1.7,6.7c0,0.7-0.3,1.4-0.7,1.9C0.8,8.9,0.7,9.2,0.9,9.5c0.3,0.5,0.3,1.2-0.2,1.7
	c-0.1,0.1-0.1,0.1-0.2,0.1l-0.4,0.3L0,11.6c0,0.1,0,0.2,0,0.3c0.2,0.5,0.4,1.1,0.6,1.6c0.2,0.5,0.2,1-0.1,1.4
	c-0.2,0.4-0.3,0.8-0.1,1.2c0.4,1.2,0.6,2.5,0.8,3.8c0,0.1,0,0.3,0,0.4c-0.1,0.6-0.1,1.3,0,1.9c-0.6,0.6-0.6,0.6-0.2,1l0.2-0.6
	c0.2,0.2,0.2,0.5,0.1,0.7c-0.1,0.5-0.1,0.5,0.3,0.7c-0.3,0.4-0.3,1,0,1.4c0,0.1,0.1,0.1,0.1,0.2c-0.2,0.7-0.2,1.5-0.3,2.2
	c-0.1,0.5,0.2,0.9,0.1,1.4c0,0.2,0,0.5,0,0.8s-0.1,0.3-0.1,0.4c0.1,0.6,0,1.2-0.2,1.8c-0.1,0.4,0,0.6,0.3,0.7c0.1,0,0.1,0.1,0.2,0.2
	L1,33.8c-0.1,0.4,0.3,0.8,0.1,1.3c0,0.1,0.1,0.3,0.2,0.5c0.2,0.3,0.2,0.7,0,1c-0.2,0.3-0.3,0.7-0.4,1.1c0,0.1,0,0.2,0,0.2
	c0.2,0.4,0.1,1,0.5,1.3c0,0,0,0.1,0,0.1h0.4c3.2-0.1,6.3-0.2,9.5-0.3c3.5-0.1,7-0.1,10.5-0.1h6.7c0.4,0,0.8,0,1.3,0
	c0.3,0,0.6,0,0.9,0c0.7-0.5,1.4-0.2,2.2,0c0.3,0.1,0.7,0.1,1,0.2l4,0.5l1.2,0.2c0.6,0.1,1.1-0.4,1.7,0s1.1,0,1.7,0.1s1.3,0,2,0
	c1,0,2,0.1,3,0.2c2,0,3.9,0.1,5.9,0.1c0.8,0,1.5-0.1,2.3-0.3c0.9-0.1,1.9-0.1,2.8,0c1,0.1,2.1,0,3.2,0h5.2c0.6,0,1.2,0,1.8,0
	c2.1,0,4.2-0.1,6.2,0c2.8,0.1,5.7,0.2,8.6,0.4h7.9c0.9-0.1,1.8-0.2,2.7-0.5c0.3-0.1,0.5-0.1,0.8-0.1c1.5,0.1,2.8-0.2,4.2-0.2
	c0.8,0,1.7,0,2.5,0s1.3-0.3,2.1,0c2.2-0.5,4.7-0.2,7.1-0.3c1.1,0,2.3,0.1,3.4,0.1l6.5,0.3c0.3,0,0.7,0,1-0.1
	c0.2-0.1,0.4-0.1,0.6-0.1c1.5,0.4,3.1-0.2,4.5,0.1c1.4,0.3,2.8,0.3,4.2-0.1c1.3-0.2,2.6-0.3,3.9-0.2c1.8,0,3.5,0.1,5.3,0.1
	c2.4,0,4.8-0.1,7.2-0.1c1.1,0,2.3,0.1,3.4,0.1h1.1c0.8,0,1.5,0,2.3,0.1c1.1,0.2,2.2,0.2,3.3,0c0.5-0.1,1.1-0.1,1.7-0.1
	c0.3,0.2,0.4,0.5,0.8,0.5c0.6,0.1,1.3,0.2,1.9,0.1c1.2-0.2,2.4-0.2,3.6-0.2c0.1,0,0.2,0,0.4,0c2.1,0.2,4.1,0.1,6.2-0.3
	c0.5-0.1,1-0.1,1.5-0.1c3.1,0,6.3,0,9.4,0.1c1.3,0,2.6,0.2,3.8,0.3c2.7,0.3,5.5,0.5,8.3,0.4c1.4,0,2.8-0.1,4.1-0.1
	c1.6,0,3.2,0.1,4.9,0.2c1.2,0.1,2.3,0.1,3.4-0.1c0.6-0.2,1.3-0.1,1.9,0.1l0.3-0.2l0.6,0.4c-0.1-0.4-0.1-0.8,0.1-1
	c0-0.6-0.6-0.4-0.8-0.8l0.4-0.1l-0.1-1.5c0.2-0.2,0.6-0.2,0.4-0.7h-0.4l-0.2-0.7C209.5,34.8,210.1,34.8,210,34.2z"/>
<path class="st0" d="M0.9,39.3L0.9,39.3L0.9,39.3L0.9,39.3z"/>
</svg>
